HIERARCHY
ROOT Hips
{
	OFFSET 0.00000 0.00000 0.00000
	CHANNELS 6 Xposition Yposition Zposition Zrotation Yrotation Xrotation 
	JOINT LHipJoint
	{
		OFFSET 0 0 0
		CHANNELS 3 Zrotation Yrotation Xrotation
		JOINT LeftUpLeg
		{
			OFFSET 1.53139 -1.83434 0.76626
			CHANNELS 3 Zrotation Yrotation Xrotation
			JOINT LeftLeg
			{
				OFFSET 2.56112 -7.03663 0.00000
				CHANNELS 3 Zrotation Yrotation Xrotation
				JOINT LeftFoot
				{
					OFFSET 2.59983 -7.14299 0.00000
					CHANNELS 3 Zrotation Yrotation Xrotation
					JOINT LeftToeBase
					{
						OFFSET 0.13742 -0.37757 2.00054
						CHANNELS 3 Zrotation Yrotation Xrotation
						End Site
						{
							OFFSET 0.00000 -0.00000 1.02897
						}
					}
				}
			}
		}
	}
	JOINT RHipJoint
	{
		OFFSET 0 0 0
		CHANNELS 3 Zrotation Yrotation Xrotation
		JOINT RightUpLeg
		{
			OFFSET -1.40122 -1.83435 0.76627
			CHANNELS 3 Zrotation Yrotation Xrotation
			JOINT RightLeg
			{
				OFFSET -2.54052 -6.98003 0.00000
				CHANNELS 3 Zrotation Yrotation Xrotation
				JOINT RightFoot
				{
					OFFSET -2.63179 -7.23079 0.00000
					CHANNELS 3 Zrotation Yrotation Xrotation
					JOINT RightToeBase
					{
						OFFSET -0.24131 -0.66299 2.03908
						CHANNELS 3 Zrotation Yrotation Xrotation
						End Site
						{
							OFFSET -0.00000 -0.00000 1.07391
						}
					}
				}
			}
		}
	}
	JOINT LowerBack
	{
		OFFSET 0 0 0
		CHANNELS 3 Zrotation Yrotation Xrotation
		JOINT Spine
		{
			OFFSET 0.01174 2.10302 -0.29778
			CHANNELS 3 Zrotation Yrotation Xrotation
			JOINT Spine1
			{
				OFFSET 0.00772 2.13227 -0.01247
				CHANNELS 3 Zrotation Yrotation Xrotation
				JOINT Neck
				{
					OFFSET 0 0 0
					CHANNELS 3 Zrotation Yrotation Xrotation
					JOINT Neck1
					{
						OFFSET -0.09219 1.60848 0.31481
						CHANNELS 3 Zrotation Yrotation Xrotation
						JOINT Head
						{
							OFFSET 0.13974 1.65456 -0.31134
							CHANNELS 3 Zrotation Yrotation Xrotation
							End Site
							{
								OFFSET 0.04742 1.69515 -0.14578
							}
						}
					}
				}
				JOINT LeftShoulder
				{
					OFFSET 0 0 0
					CHANNELS 3 Zrotation Yrotation Xrotation
					JOINT LeftArm
					{
						OFFSET 3.24909 1.02882 -0.23993
						CHANNELS 3 Zrotation Yrotation Xrotation
						JOINT LeftForeArm
						{
							OFFSET 5.32955 -0.00000 -0.00000
							CHANNELS 3 Zrotation Yrotation Xrotation
							JOINT LeftHand
							{
								OFFSET 3.69232 -0.00000 -0.00000
								CHANNELS 3 Zrotation Yrotation Xrotation
								JOINT LeftFingerBase
								{
									OFFSET 0 0 0
									CHANNELS 3 Zrotation Yrotation Xrotation
									JOINT LeftHandIndex1
									{
										OFFSET 0.53660 -0.00000 -0.00000
										CHANNELS 3 Zrotation Yrotation Xrotation
										End Site
										{
											OFFSET 0.43262 -0.00000 -0.00000
										}
									}
								}
								JOINT LThumb
								{
									OFFSET 0 0 0
									CHANNELS 3 Zrotation Yrotation Xrotation
									End Site
									{
										OFFSET 0.43922 -0.00000 0.43922
									}
								}
							}
						}
					}
				}
				JOINT RightShoulder
				{
					OFFSET 0 0 0
					CHANNELS 3 Zrotation Yrotation Xrotation
					JOINT RightArm
					{
						OFFSET -3.21387 0.93002 -0.34594
						CHANNELS 3 Zrotation Yrotation Xrotation
						JOINT RightForeArm
						{
							OFFSET -5.23431 -0.00000 0.00000
							CHANNELS 3 Zrotation Yrotation Xrotation
							JOINT RightHand
							{
								OFFSET -3.55301 -0.00000 -0.00000
								CHANNELS 3 Zrotation Yrotation Xrotation
								JOINT RightFingerBase
								{
									OFFSET 0 0 0
									CHANNELS 3 Zrotation Yrotation Xrotation
									JOINT RightHandIndex1
									{
										OFFSET -0.77252 -0.00000 -0.00000
										CHANNELS 3 Zrotation Yrotation Xrotation
										End Site
										{
											OFFSET -0.62283 -0.00000 -0.00000
										}
									}
								}
								JOINT RThumb
								{
									OFFSET 0 0 0
									CHANNELS 3 Zrotation Yrotation Xrotation
									End Site
									{
										OFFSET -0.63234 -0.00000 0.63234
									}
								}
							}
						}
					}
				}
			}
		}
	}
}
MOTION
Frames: 16
Frame Time: .0083333
-14.8475 17.9014 10.0609 0 0 0 0 0 0 -21 0 0 0 0 0 0 0 0 0 0 0 0 0 0 21 0 0 0 0 0 0 0 0 0 0 0 0 0 0 0 0 0 0 0 0 0 0 -16 0 0 21 0 0 11 0 0 0 -8 0 0 0 0 0 0 0 0 0 0 0 0 0 0 0 0 0 0 0 0 8 0 0 0 0 0 0 0 0 0 0 0 0 0 0 0 0 0
-14.8475 17.9014 10.0609 1.5611 -32.7538 -0.6136 0.0000 0.0000 0.0000 -20.1614 -8.1569 -11.9126 1.9866 8.8381 25.2902 0.0376 -5.2106 -4.7486 0.0079 -0.5732 -1.5750 0.0000 0.0000 0.0000 23.9725 2.6195 -14.1407 -2.6915 -10.1780 29.5551 -0.4315 -2.8460 -13.7787 -0.2087 -2.9413 8.1152 0.8262 1.7280 12.4800 -0.2735 2.3873 0.0520 -1.1883 1.1281 -6.9060 -8.6861 0.3609 -23.3796 2.0630 3.3527 35.4884 3.0878 0.3943 16.5761 0.0000 -0.0000 0.0000 -88.1352 -1.3826 23.1759 18.1871 -28.3961 -4.6379 -0.0000 -0.0000 5.3430 20.9859 24.7598 9.1266 -7.1250 0.0000 -0.0000 -9.2854 56.0272 -2.5272 0.0000 -0.0000 0.0000 91.5521 -4.2998 14.0547 -17.5272 27.5475 -4.3283 0.0000 0.0000 6.3352 -12.7832 7.8458 -1.7740 7.1250 -0.0000 -0.0000 10.1932 -21.9799 5.7262
-14.8468 17.9056 10.0229 1.4764 -32.2878 -0.4868 0.0000 0.0000 0.0000 -19.9314 -8.6055 -12.2217 2.0370 8.9427 25.6162 0.0207 -5.3717 -4.3741 0.0173 -0.8499 -2.3358 0.0000 0.0000 0.0000 24.0766 2.3632 -14.4134 -2.6777 -10.1541 29.4773 -0.4188 -2.8893 -13.6265 -0.2145 -2.9814 8.2269 1.1191 1.8247 12.6066 -0.3058 2.5566 0.0945 -1.4215 1.2001 -6.9137 -8.5413 0.9066 -23.2661 1.8145 4.2206 35.7578 3.1316 0.7217 16.6324 -0.0000 0.0000 0.0000 -88.1482 -1.6887 23.1515 18.2530 -28.4800 -4.6693 -0.0000 -0.0000 5.2379 20.7874 24.4903 8.9430 -7.1250 0.0000 -0.0000 -9.3750 55.7114 -2.4799 -0.0000 0.0000 0.0000 91.6148 -4.3397 13.9234 -17.6010 27.6433 -4.3626 0.0000 0.0000 6.4169 -12.7925 7.8675 -1.7802 7.1250 -0.0000 -0.0000 10.1853 -21.9576 5.7269
-14.8468 17.9093 9.9841 1.6581 -31.7481 -0.5013 0.0000 0.0000 0.0000 -19.9671 -9.2700 -12.4342 2.0827 9.0362 25.9087 0.0199 -5.4925 -4.4269 0.0734 -1.7483 -4.8105 0.0000 0.0000 0.0000 23.9213 2.1616 -14.6347 -2.6621 -10.1268 29.3884 -0.4052 -3.0101 -13.5086 -0.2096 -2.9478 8.1334 1.1925 1.9396 12.6830 -0.4054 2.7122 0.1757 -1.5970 1.2727 -6.8572 -8.3484 1.4962 -23.2989 1.6758 5.1199 36.1812 3.2314 1.0746 16.8020 -0.0000 0.0000 0.0000 -88.1771 -1.9657 23.2314 18.4067 -28.6748 -4.7428 -0.0000 -0.0000 5.0242 20.8612 24.7800 9.0750 -7.1250 0.0000 -0.0000 -9.4253 56.0219 -2.5646 -0.0000 0.0000 0.0000 91.7107 -4.3133 13.6616 -17.6484 27.7046 -4.3846 0.0000 0.0000 6.5140 -12.8055 8.3113 -1.8818 7.1250 -0.0000 -0.0000 10.1543 -21.5098 5.8139
-14.8476 17.9189 9.9427 1.7053 -31.2461 -0.4488 0.0000 0.0000 0.0000 -19.8549 -9.6977 -12.7622 2.1366 9.1449 26.2498 0.0196 -5.8249 -4.6197 0.1615 -2.5896 -7.1382 0.0000 0.0000 0.0000 23.8860 1.5864 -15.0043 -2.6450 -10.0969 29.2912 -0.3989 -2.7616 -13.2653 -0.1884 -2.7953 7.7095 1.3027 2.0232 12.7997 -0.4278 2.8377 0.2634 -1.7078 1.3305 -6.8187 -8.1678 2.1365 -23.4720 1.5551 6.1258 36.7485 3.3741 1.4579 17.0795 0.0000 -0.0000 0.0000 -88.2773 -2.1430 23.1573 18.6698 -29.0064 -4.8697 -0.0000 -0.0000 4.6699 20.9688 24.6511 9.0817 -7.1250 0.0000 -0.0000 -9.2554 55.9126 -2.4932 0.0000 -0.0000 0.0000 91.6975 -4.2434 13.5471 -17.6623 27.7226 -4.3910 0.0000 0.0000 6.5650 -12.6928 8.7908 -1.9714 7.1250 -0.0000 -0.0000 10.2128 -21.0311 5.9611
-14.8488 17.9236 9.9047 1.6438 -30.8493 -0.3337 0.0000 0.0000 0.0000 -19.6134 -10.0259 -13.1104 2.1965 9.2640 26.6247 0.0140 -6.2108 -4.7176 0.2033 -2.9033 -8.0096 0.0000 0.0000 0.0000 23.9628 1.3312 -15.2550 -2.6317 -10.0736 29.2154 -0.3857 -2.7577 -13.0707 -0.1918 -2.8205 7.7795 1.5083 2.1321 12.8870 -0.4135 3.0135 0.3309 -1.8421 1.4106 -6.7797 -7.9621 2.8201 -23.2862 1.2553 7.2060 37.0147 3.4235 1.8695 17.1256 0.0000 -0.0000 0.0000 -88.4221 -2.2518 22.9592 18.9361 -29.3392 -4.9995 -0.0000 -0.0000 4.4463 20.6657 24.5622 8.9108 -7.1250 0.0000 -0.0000 -9.5337 55.7597 -2.5336 0.0000 -0.0000 0.0000 91.6458 -4.2311 13.5026 -17.6911 27.7598 -4.4044 0.0000 0.0000 6.5857 -12.5985 8.9225 -1.9853 7.1250 -0.0000 -0.0000 10.2744 -20.9025 6.0286
-14.8450 17.9277 9.8666 1.5587 -30.4970 -0.1663 0.0000 0.0000 0.0000 -19.3468 -10.4822 -13.4288 2.2581 9.3842 27.0047 0.0065 -6.5162 -4.7302 0.2198 -3.0181 -8.3292 0.0000 0.0000 0.0000 24.0469 1.1247 -15.5628 -2.6232 -10.0586 29.1667 -0.3793 -2.7126 -12.9486 -0.1925 -2.8257 7.7938 1.8153 2.2795 12.9474 -0.4359 3.2531 0.3835 -2.0827 1.5184 -6.7299 -7.2342 3.7561 -22.7717 0.5601 8.5542 37.0167 3.2372 2.4282 17.0000 0.0000 -0.0000 0.0000 -88.4673 -2.4291 22.9822 19.0662 -29.5008 -5.0634 -0.0000 -0.0000 4.2547 20.5217 24.6614 8.8770 -7.1250 0.0000 -0.0000 -9.7281 55.8312 -2.6029 0.0000 -0.0000 0.0000 91.6215 -4.2673 13.5488 -17.7616 27.8508 -4.4373 0.0000 0.0000 6.5415 -12.7303 8.9854 -2.0208 7.1250 -0.0000 -0.0000 10.1775 -20.8335 5.9860
-14.8380 17.9239 9.8263 1.3217 -30.2103 0.0090 0.0000 0.0000 0.0000 -18.9302 -10.8759 -13.7377 2.3270 9.5163 27.4243 0.0053 -6.8719 -4.9435 0.2612 -3.2882 -9.0821 0.0000 0.0000 0.0000 24.2807 0.8871 -15.8514 -2.6236 -10.0593 29.1691 -0.3838 -2.6084 -12.9514 -0.1878 -2.7911 7.6976 2.2259 2.4341 13.1518 -0.4176 3.5231 0.4464 -2.3512 1.6371 -6.7415 -7.2216 4.2307 -23.3406 0.9128 9.2966 38.0772 3.6127 2.7013 17.6377 0.0000 0.0000 0.0000 -88.4042 -2.6034 23.3603 19.1770 -29.6381 -5.1181 -0.0000 -0.0000 3.8631 20.8245 24.6963 9.0297 -7.1250 0.0000 -0.0000 -9.4267 55.9290 -2.5436 0.0000 0.0000 0.0000 91.5857 -4.3362 13.6821 -17.9242 28.0600 -4.5135 0.0000 0.0000 6.3809 -12.8102 8.7773 -1.9872 7.1250 -0.0000 -0.0000 10.1295 -21.0398 5.9089
-14.8323 17.9100 9.7865 1.1912 -29.9202 0.1028 0.0000 0.0000 0.0000 -18.5902 -11.3327 -14.0601 2.4151 9.6819 27.9526 0.0109 -7.3104 -5.3679 0.2782 -3.3927 -9.3740 0.0000 0.0000 0.0000 24.4265 0.5748 -16.1302 -2.6183 -10.0500 29.1387 -0.3827 -2.5013 -12.8717 -0.1688 -2.6466 7.2964 2.4885 2.5910 13.3409 -0.3820 3.7759 0.5128 -2.5150 1.7526 -6.7489 -7.5001 4.6542 -23.8592 1.4060 10.0329 39.0783 4.1099 2.9478 18.2172 0.0000 -0.0000 0.0000 -88.4233 -2.7329 23.6487 19.2855 -29.7719 -5.1719 -0.0000 -0.0000 3.4059 20.9902 24.6155 9.0795 -7.1250 0.0000 -0.0000 -9.2175 55.8807 -2.4757 0.0000 -0.0000 0.0000 91.5325 -4.4268 13.5960 -18.0793 28.2586 -4.5867 0.0000 0.0000 6.3680 -12.6732 8.5260 -1.9095 7.1250 -0.0000 -0.0000 10.2391 -21.2987 5.9139
-14.8261 17.9030 9.7455 1.1640 -29.6255 0.1689 0.0000 0.0000 0.0000 -18.3494 -11.6993 -14.4325 2.5276 9.8879 28.6145 0.0146 -7.6788 -5.6936 0.2737 -3.3652 -9.2971 0.0000 0.0000 0.0000 24.4864 0.2124 -16.4360 -2.6025 -10.0219 29.0478 -0.3766 -2.4291 -12.7389 -0.1395 -2.4074 6.6331 2.6901 2.7634 13.4299 -0.3977 4.0332 0.6281 -2.6920 1.8748 -6.6460 -6.6817 5.5827 -23.1822 0.5846 11.3687 38.8632 3.8230 3.5136 17.9778 -0.0000 -0.0000 0.0000 -88.4979 -2.9095 23.7145 19.4534 -29.9782 -5.2555 -0.0000 -0.0000 2.9844 20.8871 24.6321 9.0372 -7.1250 0.0000 -0.0000 -9.3328 55.8764 -2.5060 -0.0000 -0.0000 0.0000 91.5303 -4.4314 13.4435 -18.2732 28.5055 -4.6789 0.0000 0.0000 6.4872 -12.4795 8.2901 -1.8277 7.1250 -0.0000 -0.0000 10.3896 -21.5437 5.9449
-14.8198 17.9117 9.7088 1.0292 -29.4717 0.2297 0.0000 0.0000 0.0000 -18.0639 -11.7775 -14.7455 2.6600 10.1233 29.3768 0.0364 -7.8674 -6.2556 0.4340 -4.2278 -11.7183 0.0000 0.0000 0.0000 24.6428 -0.1159 -16.6091 -2.5810 -9.9836 28.9238 -0.3723 -2.3177 -12.6104 -0.1029 -2.0684 5.6947 3.0391 2.9747 13.5255 -0.4277 4.3639 0.7391 -2.9798 2.0291 -6.5322 -6.1977 6.2878 -22.7181 0.2086 12.3848 38.9949 3.7599 3.9404 17.9591 0.0000 -0.0000 0.0000 -88.5065 -3.0119 23.7945 19.5446 -30.0898 -5.3011 -0.0000 -0.0000 2.7725 21.0091 23.8619 8.8308 -7.1250 0.0000 -0.0000 -8.8772 55.1138 -2.2174 0.0000 -0.0000 0.0000 91.5440 -4.5188 13.4311 -18.5216 28.8199 -4.7980 0.0000 0.0000 6.5310 -12.3606 7.9743 -1.7413 7.1250 -0.0000 -0.0000 10.4913 -21.8658 5.9269
-14.8129 17.9213 9.6726 0.9766 -29.4105 0.2108 0.0000 0.0000 0.0000 -17.8810 -11.8475 -15.0270 2.8259 10.4078 30.3076 0.0542 -7.9372 -6.6378 0.5307 -4.6682 -12.9646 0.0000 0.0000 0.0000 24.7067 -0.3739 -16.6690 -2.5459 -9.9209 28.7209 -0.3653 -2.1329 -12.3985 -0.0875 -1.9082 5.2519 3.2967 3.2258 13.7342 -0.4820 4.7379 0.7658 -3.2614 2.2021 -6.5689 -5.9235 6.9233 -22.2984 0.1646 13.2899 39.4295 3.8748 4.3193 18.0805 -0.0000 -0.0000 0.0000 -88.4464 -2.9204 24.0486 19.5639 -30.1134 -5.3108 -0.0000 -0.0000 2.5365 21.7625 22.5430 8.7015 -7.1250 0.0000 -0.0000 -7.5868 53.9028 -1.6679 -0.0000 -0.0000 0.0000 91.4661 -4.7199 13.7114 -18.6178 28.9410 -4.8445 0.0000 0.0000 6.1758 -12.4648 7.8943 -1.7390 7.1250 -0.0000 -0.0000 10.4203 -21.9425 5.8670
-14.8032 17.9268 9.6335 1.0824 -29.3321 0.0987 0.0000 0.0000 0.0000 -17.8468 -12.0365 -15.2837 3.0234 10.7329 31.3843 0.0585 -8.1854 -6.8602 0.4636 -4.3676 -12.1132 0.0000 0.0000 0.0000 24.6073 -0.7317 -16.7536 -2.5009 -9.8395 28.4586 -0.3574 -1.7768 -12.0823 -0.0920 -1.9566 5.3857 3.3852 3.4673 13.9403 -0.5536 5.0699 0.8645 -3.4566 2.3620 -6.5390 -5.7487 7.5585 -22.1014 0.2008 14.2463 39.9351 4.0700 4.7017 18.2840 -0.0000 0.0000 0.0000 -88.4826 -2.8265 24.3581 19.7346 -30.3213 -5.3967 -0.0000 -0.0000 1.8284 22.7396 22.2266 9.0088 -7.1250 0.0000 -0.0000 -6.4714 53.7612 -1.3985 -0.0000 0.0000 0.0000 91.2259 -4.6382 14.2720 -18.5334 28.8347 -4.8037 0.0000 0.0000 5.6493 -12.6199 7.8922 -1.7609 7.1250 -0.0000 -0.0000 10.3086 -21.9391 5.8029
-14.7941 17.9393 9.5927 1.1581 -29.2907 -0.0008 0.0000 0.0000 0.0000 -17.7888 -12.1608 -15.5115 3.2395 11.0730 32.5264 0.0755 -8.4378 -7.3051 0.6100 -4.9991 -13.9061 0.0000 0.0000 0.0000 24.5499 -0.9750 -16.8118 -2.4611 -9.7668 28.2250 -0.3426 -1.4948 -11.7039 -0.1006 -2.0449 5.6299 3.4828 3.7071 14.0869 -0.6301 5.3963 1.0396 -3.6527 2.5240 -6.3911 -5.6350 8.0979 -21.9255 0.1350 15.0895 40.1251 4.1886 5.0394 18.3282 -0.0000 0.0000 0.0000 -88.4299 -2.9300 24.8182 19.8799 -30.4974 -5.4703 -0.0000 -0.0000 0.8871 24.0628 22.6465 9.7560 -7.1250 0.0000 -0.0000 -5.2426 54.4603 -1.2212 -0.0000 0.0000 0.0000 91.0358 -4.4554 14.7047 -18.5482 28.8535 -4.8109 0.0000 0.0000 5.3223 -12.7066 7.6474 -1.7187 7.1250 -0.0000 -0.0000 10.2587 -22.1826 5.7160
-14.7858 17.9502 9.5557 1.0706 -29.3437 -0.0220 0.0000 0.0000 0.0000 -17.5812 -12.2272 -15.6675 3.4720 11.4225 33.7184 0.0927 -8.5172 -7.6382 0.8081 -5.7370 -16.0233 0.0000 0.0000 0.0000 24.6618 -1.1656 -16.8459 -2.4261 -9.7023 28.0179 -0.3342 -1.2292 -11.4377 -0.1378 -2.3927 6.5922 3.7078 3.9752 14.2350 -0.6816 5.7844 1.1424 -3.9078 2.7107 -6.3038 -5.4694 8.5830 -21.4181 -0.0487 15.7966 40.0063 4.1739 5.3548 18.1395 -0.0000 0.0000 0.0000 -88.2462 -3.1499 25.0598 19.8447 -30.4548 -5.4524 -0.0000 -0.0000 0.5138 23.7839 23.8125 10.0895 -7.1250 0.0000 -0.0000 -5.9476 55.6279 -1.5552 -0.0000 0.0000 0.0000 90.9542 -4.5355 14.8789 -18.6636 28.9986 -4.8667 0.0000 0.0000 5.2185 -12.8025 7.7511 -1.7555 7.1250 -0.0000 -0.0000 10.1839 -22.0746 5.6985
-14.7768 17.9572 9.5270 1.0370 -29.4144 -0.0306 0.0000 0.0000 0.0000 -17.4599 -12.3579 -15.7608 3.7283 11.7898 34.9924 0.1077 -8.4096 -7.8304 0.8441 -5.8601 -16.3790 0.0000 0.0000 0.0000 24.7060 -1.4151 -16.8765 -2.3845 -9.6248 27.7701 -0.3295 -0.9161 -11.2143 -0.2043 -2.9105 8.0298 3.9256 4.2202 14.2234 -0.7613 6.1343 1.2313 -4.1670 2.8825 -6.1399 -5.4243 9.0190 -20.8906 -0.0471 16.4151 40.0547 4.2470 5.6341 18.0074 -0.0000 0.0000 0.0000 -88.0850 -3.2243 25.0807 19.9151 -30.5399 -5.4882 -0.0000 0.0000 -0.0653 23.1986 24.5354 10.0911 -7.1250 0.0000 -0.0000 -6.8495 56.2590 -1.8975 -0.0000 0.0000 0.0000 90.8514 -4.6017 15.1366 -18.7205 29.0698 -4.8943 0.0000 0.0000 5.1352 -12.7003 8.0559 -1.8089 7.1250 -0.0000 -0.0000 10.2424 -21.7712 5.8042
